<?xml version="1.0" encoding="UTF-8"?>
<svg id="Layer_2" data-name="Layer 2" xmlns="http://www.w3.org/2000/svg" viewBox="0 0 73.46 73.46">
  <defs>
    <style>
      .cls-1 {
        fill: #231f20;
        stroke-width: 0px;
      }
    </style>
  </defs>
  <g id="Layer_1-2" data-name="Layer 1">
    <path class="cls-1" d="M57.07,1.22l-17.4,17.4c-1.63,1.63-4.26,1.63-5.89,0L16.39,1.22c-1.63-1.63-4.26-1.63-5.89,0L1.22,10.49c-1.63,1.63-1.63,4.26,0,5.89l17.4,17.4c1.63,1.63,1.63,4.26,0,5.89L1.22,57.07c-1.63,1.63-1.63,4.26,0,5.89l9.28,9.28c1.63,1.63,4.26,1.63,5.89,0l17.4-17.4c1.63-1.63,4.26-1.63,5.89,0l17.4,17.4c1.63,1.63,4.26,1.63,5.89,0l9.28-9.28c1.63-1.63,1.63-4.26,0-5.89l-17.4-17.4c-1.63-1.63-1.63-4.26,0-5.89l17.4-17.4c1.63-1.63,1.63-4.26,0-5.89L62.96,1.22c-1.63-1.63-4.26-1.63-5.89,0Z"/>
  </g>
</svg>