<?xml version="1.0" encoding="UTF-8"?>
<svg id="Layer_2" data-name="Layer 2" xmlns="http://www.w3.org/2000/svg" viewBox="0 0 27.55 27.55">
  <defs>
    <style>
      .cls-1 {
        fill: #231f20;
        stroke-width: 0px;
      }
    </style>
  </defs>
  <g id="Layer_1-2" data-name="Layer 1">
    <g>
      <path class="cls-1" d="M17.8,4h2.29c1.91,0,3.46,1.55,3.46,3.46v2.29c0,.59.48,1.07,1.07,1.07h1.87c.59,0,1.07-.48,1.07-1.07v-2.29c0-4.12-3.34-7.46-7.46-7.46h-2.29c-.59,0-1.07.48-1.07,1.07v1.87c0,.59.48,1.07,1.07,1.07Z"/>
      <path class="cls-1" d="M4,9.75v-2.29c0-1.91,1.55-3.46,3.46-3.46h2.29c.59,0,1.07-.48,1.07-1.07v-1.87c0-.59-.48-1.07-1.07-1.07h-2.29C3.34,0,0,3.34,0,7.46v2.29c0,.59.48,1.07,1.07,1.07h1.87c.59,0,1.07-.48,1.07-1.07Z"/>
      <path class="cls-1" d="M9.75,23.55h-2.29c-1.91,0-3.46-1.55-3.46-3.46v-2.29c0-.59-.48-1.07-1.07-1.07h-1.87c-.59,0-1.07.48-1.07,1.07v2.29c0,4.12,3.34,7.46,7.46,7.46h2.29c.59,0,1.07-.48,1.07-1.07v-1.87c0-.59-.48-1.07-1.07-1.07Z"/>
      <path class="cls-1" d="M23.55,17.8v2.29c0,1.91-1.55,3.46-3.46,3.46h-2.29c-.59,0-1.07.48-1.07,1.07v1.87c0,.59.48,1.07,1.07,1.07h2.29c4.12,0,7.46-3.34,7.46-7.46v-2.29c0-.59-.48-1.07-1.07-1.07h-1.87c-.59,0-1.07.48-1.07,1.07Z"/>
    </g>
  </g>
</svg>