<?xml version="1.0" encoding="UTF-8"?>
<svg id="Layer_2" data-name="Layer 2" xmlns="http://www.w3.org/2000/svg" viewBox="0 0 50.82 50.82">
  <defs>
    <style>
      .cls-1 {
        fill: #231f20;
        stroke-width: 0px;
      }
    </style>
  </defs>
  <g id="Layer_1-2" data-name="Layer 1">
    <rect class="cls-1" x="21.29" y="-3.97" width="13.21" height="53.81" rx="1.84" ry="1.84" transform="translate(24.38 -13.01) rotate(45)"/>
    <path class="cls-1" d="M1.9,50.28l-1.36-1.36c-.44-.44-.63-1.08-.5-1.69l.87-4.07c.31-1.43,2.07-1.95,3.11-.92l4.55,4.55c1.03,1.03.51,2.8-.92,3.11l-4.07.87c-.61.13-1.25-.06-1.69-.5Z"/>
    <path class="cls-1" d="M23.42,3.84H7.89c-1.57,0-2.85,1.3-2.85,2.91v15.89c0,2.6,3.07,3.9,4.86,2.06l15.53-15.89c1.79-1.84.52-4.98-2.01-4.98Z"/>
    <path class="cls-1" d="M46.5,27.46v15.89c0,1.61-1.28,2.91-2.85,2.91h-15.53c-2.54,0-3.81-3.14-2.01-4.98l15.53-15.89c1.79-1.84,4.86-.54,4.86,2.06Z"/>
  </g>
</svg>