<?xml version="1.0" encoding="UTF-8"?>
<svg id="Layer_2" data-name="Layer 2" xmlns="http://www.w3.org/2000/svg" viewBox="0 0 24 24">
  <defs>
    <style>
      .cls-1 {
        fill-rule: evenodd;
        stroke-width: 0px;
      }
    </style>
  </defs>
  <g id="Layer_1-2" data-name="Layer 1">
    <g>
      <path class="cls-1" d="M14.19,9.51c-.03-1.44-1.97-1.35-2.92-1.31-.11,0-.2,0-.28,0l.05,2.71h.22c.93,0,2.95,0,2.93-1.41Z"/>
      <path class="cls-1" d="M11.4,12.28c-.13,0-.24.01-.33.01l.05,2.99c.08,0,.17,0,.27,0,1.11,0,3.54-.01,3.51-1.56-.03-1.58-2.36-1.48-3.5-1.44Z"/>
      <path class="cls-1" d="M14.9.36C8.47-1.24,1.96,2.67.36,9.1c-1.6,6.43,2.31,12.94,8.74,14.54h0c6.43,1.6,12.94-2.31,14.54-8.74,1.6-6.43-2.31-12.94-8.74-14.54ZM17.58,13.94c-.16,2.15-1.75,2.75-4.03,2.92l.04,2.25-1.36.02-.04-2.22c-.35,0-.71,0-1.08,0l.04,2.23-1.36.02-.04-2.25h-.38c-.19,0-.39,0-.59,0l-1.77.03.24-1.62s1,0,.99-.02c.38,0,.48-.28.5-.46l-.06-3.56h.1s.05,0,.05,0c-.05,0-.1,0-.14,0l-.04-2.54c-.06-.27-.24-.59-.79-.58.01-.02-.99.02-.99.02l-.03-1.45,1.87-.03h0c.28,0,.57,0,.86-.02l-.04-2.23,1.36-.02.04,2.18c.36-.01.73-.03,1.08-.03l-.04-2.17,1.36-.02.04,2.23c1.75.12,3.15.64,3.33,2.24.14,1.17-.34,1.89-1.12,2.3,1.3.29,2.12,1.04,1.99,2.77Z"/>
    </g>
  </g>
</svg>