<?xml version="1.0" encoding="UTF-8"?>
<svg id="Layer_2" data-name="Layer 2" xmlns="http://www.w3.org/2000/svg" viewBox="0 0 37.64 41.64">
  <defs>
    <style>
      .cls-1 {
        fill: #231f20;
        stroke-width: 0px;
      }
    </style>
  </defs>
  <g id="Layer_1-2" data-name="Layer 1">
    <path class="cls-1" d="M28.78,15.19c.73-1.67,1.05-3.56.84-5.55C29.07,4.66,25.02.61,20.04.07,13.49-.65,7.96,4.46,7.96,10.86c0,1.59.34,3.09.96,4.45.76,1.69.24,3.67-1.23,4.79C3,23.66,0,29.38,0,35.66v1.96c0,2.22,1.8,4.02,4.02,4.02h29.6c2.22,0,4.02-1.8,4.02-4.02v-2.45c0-6.19-2.99-11.66-7.6-15.09-1.52-1.13-2.02-3.15-1.26-4.88Z"/>
  </g>
</svg>