<?xml version="1.0" encoding="UTF-8"?>
<svg id="Layer_2" data-name="Layer 2" xmlns="http://www.w3.org/2000/svg" viewBox="0 0 134.96 134.96">
  <defs>
    <style>
      .cls-1 {
        fill: #231f20;
        stroke-width: 0px;
      }
    </style>
  </defs>
  <g id="Layer_1-2" data-name="Layer 1">
    <g>
      <path class="cls-1" d="M106.97,56.76h-24.61c-2.3,0-4.16-1.86-4.16-4.16v-24.61c0-2.3-1.86-4.16-4.16-4.16h-13.12c-2.3,0-4.16,1.86-4.16,4.16v24.61c0,2.3-1.86,4.16-4.16,4.16h-24.61c-2.3,0-4.16,1.86-4.16,4.16v13.12c0,2.3,1.86,4.16,4.16,4.16h24.61c2.3,0,4.16,1.86,4.16,4.16v24.61c0,2.3,1.86,4.16,4.16,4.16h13.12c2.3,0,4.16-1.86,4.16-4.16v-24.61c0-2.3,1.86-4.16,4.16-4.16h24.61c2.3,0,4.16-1.86,4.16-4.16v-13.12c0-2.3-1.86-4.16-4.16-4.16Z"/>
      <path class="cls-1" d="M67.48,134.96C30.27,134.96,0,104.69,0,67.48S30.27,0,67.48,0s67.48,30.27,67.48,67.48-30.27,67.48-67.48,67.48ZM67.48,11c-31.14,0-56.48,25.34-56.48,56.48s25.34,56.48,56.48,56.48,56.48-25.34,56.48-56.48S98.62,11,67.48,11Z"/>
    </g>
  </g>
</svg>