<?xml version="1.0" encoding="UTF-8"?>
<svg id="Layer_2" data-name="Layer 2" xmlns="http://www.w3.org/2000/svg" viewBox="0 0 40.64 40.64">
  <defs>
    <style>
      .cls-1 {
        fill: #231f20;
        stroke-width: 0px;
      }
    </style>
  </defs>
  <g id="Layer_1-2" data-name="Layer 1">
    <path class="cls-1" d="M40.09,35.21l-6.32-6.32c-.59-.59-.72-1.5-.31-2.23,4.13-7.33,2.7-16.97-4.32-22.69-6.44-5.25-15.89-5.3-22.39-.12C-1.71,10.63-2.22,23.08,5.23,30.53c5.8,5.8,14.62,6.77,21.44,2.93.73-.41,1.64-.28,2.23.31l6.32,6.32c.73.73,1.92.73,2.66,0l2.22-2.22c.73-.73.73-1.92,0-2.66ZM10.53,27.46c-6.29-4.87-6.29-14.29,0-19.16,4.28-3.32,10.42-3.32,14.71,0,6.29,4.87,6.29,14.29,0,19.16-4.28,3.32-10.42,3.32-14.71,0Z"/>
  </g>
</svg>