<?xml version="1.0" encoding="UTF-8"?>
<svg id="Layer_2" data-name="Layer 2" xmlns="http://www.w3.org/2000/svg" viewBox="0 0 32 32">
  <defs>
    <style>
      .cls-1 {
        stroke-width: 0px;
      }
    </style>
  </defs>
  <g id="Layer_1-2" data-name="Layer 1">
    <g>
      <path class="cls-1" d="M17.92,14.07v2.64c-.11,0-.72.06-1.92.06-1.01,0-1.73-.04-1.99-.06v-2.64c-3.89.17-6.79.85-6.79,1.66s2.9,1.49,6.79,1.66h0c.25,0,.96.04,1.97.04,1.27,0,1.83-.03,1.94-.04h0c3.88-.17,6.78-.85,6.78-1.66s-2.9-1.48-6.78-1.66Z"/>
      <path class="cls-1" d="M16,0C7.16,0,0,7.16,0,16s7.16,16,16,16,16-7.16,16-16S24.84,0,16,0ZM17.92,18.03v7.58h-3.91v-7.58c-4.4-.2-7.71-1.07-7.71-2.12s3.31-1.92,7.71-2.12v-2.37h-5.41v-3.61h14.74v3.61h-5.41v2.37c4.39.2,7.69,1.07,7.69,2.12s-3.3,1.91-7.69,2.12Z"/>
    </g>
  </g>
</svg>